<svg width="1024" height="1024" viewBox="0 0 1024 1024" fill="none" xmlns="http://www.w3.org/2000/svg">
<rect width="1024" height="1024" fill="black"/>
<path d="M154 571.497V156.575H238.929V501.044H417.973V538.001C417.973 556.499 402.975 571.497 384.478 571.497H154Z" fill="white"/>
<path d="M450.364 571.497V260.165H533.898V538.001C533.898 556.499 518.901 571.497 500.404 571.497H450.364ZM492.131 239.772C479.505 239.772 468.741 235.592 459.831 227.238C450.918 218.885 446.464 208.767 446.464 196.887C446.464 185.008 450.918 174.886 459.831 166.53C468.741 158.176 479.505 154 492.131 154C504.754 154 515.565 158.176 524.572 166.53C533.575 174.886 538.075 185.008 538.075 196.887C538.075 208.767 533.575 218.885 524.572 227.238C515.565 235.592 504.754 239.772 492.131 239.772Z" fill="white"/>
<path d="M718.485 511.905C733.336 511.905 745.775 507.775 755.799 499.511C765.823 491.255 773.342 479.929 778.352 465.538C783.366 451.153 785.871 434.953 785.871 416.945C785.871 398.567 783.366 382.231 778.352 367.936C773.342 353.641 765.823 342.409 755.799 334.239C745.775 326.072 733.336 321.986 718.485 321.986C703.631 321.986 691.242 326.072 681.315 334.239C671.378 342.409 663.909 353.641 658.898 367.936C653.885 382.231 651.38 398.567 651.38 416.945C651.38 434.953 653.885 451.153 658.898 465.538C663.909 479.929 671.378 491.255 681.315 499.511C691.242 507.775 703.631 511.905 718.485 511.905ZM718.485 577.624C687.299 577.624 660.289 570.895 637.456 557.435C614.626 543.977 597.033 525.225 584.691 501.183C572.342 477.144 566.171 449.158 566.171 417.226C566.171 384.923 572.342 356.754 584.691 332.708C597.033 308.669 614.626 289.917 637.456 276.456C660.289 262.999 687.299 256.267 718.485 256.267C749.855 256.267 776.911 262.999 799.655 276.456C822.391 289.917 839.934 308.669 852.283 332.708C864.625 356.754 870.8 384.923 870.8 417.226C870.8 449.158 864.625 477.144 852.283 501.183C839.934 525.225 822.391 543.977 799.655 557.435C776.911 570.895 749.855 577.624 718.485 577.624Z" fill="white"/>
<path d="M250.691 766.911C259.207 766.911 266.589 764.673 272.85 760.129C279.111 755.619 284.285 749.844 288.388 742.772C292.495 735.666 295.51 728.14 297.472 720.127C299.42 712.144 300.394 704.584 300.394 697.512C300.394 687.257 298.139 679.081 293.612 672.982C289.102 666.884 282.127 663.832 272.703 663.832C264.494 663.832 257.275 665.91 251.081 670.063C244.866 674.217 239.693 679.698 235.54 686.513C231.387 693.359 228.224 700.788 226.083 708.834C223.924 716.881 222.837 724.861 222.837 732.747C222.837 743.322 225.205 751.662 229.929 757.76C234.632 763.862 241.557 766.911 250.691 766.911ZM154 870.317L193.916 629.051H239.302L234.079 657.96H235.46C238.332 653.257 242.094 648.486 246.764 643.652C251.438 638.852 257.212 634.859 264.074 631.679C270.952 628.5 278.998 626.879 288.228 626.879C299.613 626.879 309.754 629.441 318.627 634.502C327.5 639.596 334.522 647.188 339.696 657.28C344.873 667.401 347.468 679.925 347.468 694.917C347.468 707.213 345.747 719.77 342.308 732.52C338.885 745.304 333.695 757.08 326.77 767.852C319.858 778.624 311.165 787.317 300.701 794.003C290.24 800.655 277.927 803.997 263.764 803.997C254.033 803.997 246.051 802.309 239.839 798.933C233.642 795.527 228.841 791.374 225.466 786.443C222.076 781.543 219.658 776.776 218.23 772.135H216.075L202.342 856.79C201.078 864.589 194.343 870.317 186.444 870.317H154Z" fill="white"/>
<path d="M446.856 766.911C454.755 766.911 461.813 764.736 468.025 760.389C474.222 756.009 479.43 749.974 483.629 742.221C487.846 734.465 490.768 725.478 492.406 715.226C494.14 704.748 494.224 695.661 492.633 687.971C491.041 680.282 487.846 674.347 483.012 670.127C478.195 665.943 471.837 663.832 463.938 663.832C455.842 663.832 448.657 666.04 442.396 670.45C436.148 674.864 430.991 680.899 426.935 688.588C422.882 696.278 420.043 705.168 418.405 715.226C416.75 725.284 416.7 734.205 418.242 741.994C419.783 749.781 422.928 755.879 427.715 760.292C432.482 764.706 438.86 766.911 446.856 766.911ZM426.401 803.997C413.261 803.997 401.956 800.558 392.466 793.679C382.976 786.834 376.244 776.776 372.238 763.602C368.248 750.428 367.825 734.305 371.004 715.226C374.296 695.631 380.187 679.277 388.703 666.2C397.219 653.126 407.324 643.295 419.019 636.74C430.701 630.188 442.913 626.879 455.632 626.879C465.379 626.879 473.198 628.5 479.103 631.746C484.994 634.959 489.534 639.012 492.713 643.816C495.892 648.65 498.147 653.353 499.478 657.96H501.019L505.789 629.051H551.792L525.553 787.601C524.266 795.374 517.544 801.075 509.665 801.075H477.935L482.398 773.53H480.257C477.271 778.267 473.378 782.94 468.562 787.611C463.725 792.285 457.837 796.178 450.862 799.29C443.887 802.439 435.728 803.997 426.401 803.997Z" fill="white"/>
<path d="M612.347 870.8H576.561L604.268 810.775L607.187 801.531L571.031 629.053H604.995C612.904 629.053 619.643 634.794 620.897 642.604L633.046 718.308C634.684 729.567 635.658 740.859 635.965 752.148C636.272 763.441 636.825 775.217 637.653 787.547H626.881C631.835 774.866 636.688 762.737 641.435 751.117C645.969 740.035 650.962 729.146 656.346 718.451L696.893 637.913C699.628 632.479 705.192 629.053 711.276 629.053H751.055L646.119 821.387L626.881 861.639C624.203 867.237 618.552 870.8 612.347 870.8Z" fill="white"/>
</svg>
