<svg width="537" height="195" viewBox="0 0 537 195" fill="none" xmlns="http://www.w3.org/2000/svg">
<g clip-path="url(#clip0_1_9)">
<path d="M336.313 152.94C339.717 152.94 342.668 152.046 345.17 150.23C347.673 148.427 349.741 146.119 351.381 143.292C353.022 140.452 354.228 137.444 355.012 134.242C355.79 131.051 356.18 128.03 356.18 125.203C356.18 121.104 355.278 117.836 353.469 115.399C351.666 112.962 348.878 111.742 345.112 111.742C341.83 111.742 338.945 112.572 336.469 114.232C333.985 115.892 331.917 118.083 330.257 120.807C328.597 123.543 327.333 126.512 326.477 129.728C325.614 132.944 325.18 136.134 325.18 139.286C325.18 143.512 326.126 146.846 328.014 149.283C329.894 151.722 332.662 152.94 336.313 152.94ZM297.665 194.27L313.62 97.8404H331.761L329.673 109.395H330.225C331.373 107.515 332.877 105.608 334.744 103.676C336.612 101.758 338.92 100.162 341.662 98.8911C344.412 97.6204 347.628 96.9724 351.317 96.9724C355.868 96.9724 359.921 97.9964 363.468 100.019C367.014 102.055 369.821 105.09 371.889 109.123C373.958 113.168 374.996 118.174 374.996 124.166C374.996 129.08 374.308 134.099 372.933 139.195C371.565 144.304 369.49 149.011 366.722 153.316C363.96 157.622 360.485 161.096 356.302 163.768C352.121 166.427 347.2 167.763 341.538 167.763C337.649 167.763 334.458 167.088 331.976 165.739C329.498 164.378 327.58 162.718 326.23 160.747C324.876 158.788 323.909 156.883 323.338 155.028H322.477L316.988 188.863C316.482 191.98 313.79 194.27 310.633 194.27H297.665Z" fill="black"/>
<path d="M414.722 152.94C417.879 152.94 420.7 152.071 423.183 150.334C425.66 148.583 427.742 146.171 429.42 143.072C431.106 139.972 432.274 136.38 432.928 132.283C433.622 128.095 433.655 124.463 433.019 121.39C432.383 118.316 431.106 115.944 429.174 114.258C427.248 112.586 424.707 111.742 421.55 111.742C418.314 111.742 415.442 112.624 412.939 114.387C410.442 116.151 408.38 118.563 406.759 121.636C405.139 124.71 404.004 128.263 403.35 132.283C402.688 136.303 402.668 139.868 403.284 142.982C403.9 146.094 405.158 148.531 407.071 150.295C408.976 152.059 411.526 152.94 414.722 152.94ZM406.546 167.763C401.294 167.763 396.775 166.388 392.982 163.639C389.188 160.903 386.498 156.883 384.896 151.618C383.302 146.352 383.132 139.908 384.403 132.283C385.719 124.451 388.074 117.915 391.478 112.688C394.882 107.463 398.92 103.534 403.595 100.914C408.264 98.2951 413.146 96.9724 418.23 96.9724C422.126 96.9724 425.251 97.6204 427.611 98.9177C429.966 100.202 431.78 101.822 433.051 103.742C434.322 105.674 435.223 107.554 435.755 109.395H436.371L438.278 97.8404H456.666L446.178 161.21C445.663 164.316 442.976 166.595 439.827 166.595H427.144L428.928 155.586H428.072C426.879 157.479 425.323 159.347 423.398 161.214C421.464 163.082 419.111 164.638 416.323 165.882C413.535 167.14 410.274 167.763 406.546 167.763Z" fill="black"/>
<path d="M480.87 194.463H466.566L477.641 170.472L478.807 166.777L464.355 97.8413H477.931C481.093 97.8413 483.786 100.136 484.287 103.257L489.143 133.515C489.798 138.015 490.187 142.528 490.31 147.04C490.433 151.553 490.654 156.26 490.985 161.188H486.679C488.659 156.12 490.599 151.272 492.497 146.628C494.309 142.199 496.305 137.847 498.457 133.572L514.663 101.383C515.757 99.2107 517.981 97.8413 520.413 97.8413H536.313L494.369 174.713L486.679 190.801C485.609 193.039 483.35 194.463 480.87 194.463Z" fill="black"/>
<path d="M0 166.865V1.02921H33.9467V138.707H105.512V153.477C105.512 160.871 99.5173 166.865 92.124 166.865H0Z" fill="black"/>
<path d="M118.459 166.865V42.4319H151.848V153.477C151.848 160.871 145.854 166.865 138.46 166.865H118.459ZM135.154 34.2812C130.107 34.2812 125.804 32.6105 122.243 29.2719C118.68 25.9332 116.9 21.8892 116.9 17.1412C116.9 12.3932 118.68 8.34789 122.243 5.00789C125.804 1.66922 130.107 -0.00012207 135.154 -0.00012207C140.199 -0.00012207 144.52 1.66922 148.12 5.00789C151.719 8.34789 153.518 12.3932 153.518 17.1412C153.518 21.8892 151.719 25.9332 148.12 29.2719C144.52 32.6105 140.199 34.2812 135.154 34.2812Z" fill="black"/>
<path d="M225.629 143.047C231.565 143.047 236.537 141.397 240.544 138.094C244.55 134.794 247.556 130.267 249.558 124.515C251.562 118.766 252.564 112.291 252.564 105.094C252.564 97.7485 251.562 91.2192 249.558 85.5059C247.556 79.7925 244.55 75.3032 240.544 72.0379C236.537 68.7739 231.565 67.1405 225.629 67.1405C219.692 67.1405 214.74 68.7739 210.772 72.0379C206.8 75.3032 203.814 79.7925 201.812 85.5059C199.808 91.2192 198.806 97.7485 198.806 105.094C198.806 112.291 199.808 118.766 201.812 124.515C203.814 130.267 206.8 134.794 210.772 138.094C214.74 141.397 219.692 143.047 225.629 143.047ZM225.629 169.314C213.164 169.314 202.368 166.625 193.241 161.245C184.116 155.866 177.084 148.371 172.15 138.762C167.214 129.154 164.748 117.969 164.748 105.206C164.748 92.2952 167.214 81.0365 172.15 71.4259C177.084 61.8179 184.116 54.3232 193.241 48.9432C202.368 43.5645 213.164 40.8739 225.629 40.8739C238.168 40.8739 248.982 43.5645 258.073 48.9432C267.161 54.3232 274.173 61.8179 279.109 71.4259C284.042 81.0365 286.51 92.2952 286.51 105.206C286.51 117.969 284.042 129.154 279.109 138.762C274.173 148.371 267.161 155.866 258.073 161.245C248.982 166.625 238.168 169.314 225.629 169.314Z" fill="black"/>
</g>
<defs>
<clipPath id="clip0_1_9">
<rect width="536.312" height="194.463" fill="white"/>
</clipPath>
</defs>
</svg>
